<?xml version="1.0" encoding="UTF-8" standalone="no"?>
<svg
   style="display:block"
   viewBox="0 0 16.327671 30.923633"
   version="1.1"
   id="svg1"
   sodipodi:docname="annie.svg"
   width="16.327671"
   height="30.923634"
   inkscape:version="1.3.2 (091e20ef0f, 2023-11-25)"
   xmlns:inkscape="http://www.inkscape.org/namespaces/inkscape"
   xmlns:sodipodi="http://sodipodi.sourceforge.net/DTD/sodipodi-0.dtd"
   xmlns="http://www.w3.org/2000/svg"
   xmlns:svg="http://www.w3.org/2000/svg">
  <defs
     id="defs1" />
  <sodipodi:namedview
     id="namedview1"
     pagecolor="#ffffff"
     bordercolor="#000000"
     borderopacity="0.25"
     inkscape:showpageshadow="2"
     inkscape:pageopacity="0.0"
     inkscape:pagecheckerboard="0"
     inkscape:deskcolor="#d1d1d1"
     showgrid="false"
     inkscape:zoom="75.84252"
     inkscape:cx="-1.0614099"
     inkscape:cy="27.491175"
     inkscape:window-width="1278"
     inkscape:window-height="1408"
     inkscape:window-x="1280"
     inkscape:window-y="380"
     inkscape:window-maximized="1"
     inkscape:current-layer="svg1" />
  <path
     d="m 4.7004045,8.9060013 h 0.494778 v 0.49478 H 6.1847381 V 10.142949 H 8.4112397 V 9.8955448 H 7.1742939 V 9.4007681 H 9.4007943 V 9.6481416 H 9.1534054 V 9.8955173 H 8.9060011 V 10.142919 H 9.8955589 V 9.8955173 H 10.142965 V 9.4007417 h 0.989552 V 8.9059639 h 0.247375 v 0.9895556 h 0.494778 v 0.2474055 h 0.247405 v 0.247402 h 0.247404 v 0.494778 h 0.247375 v 1.236945 h 0.247404 v 0.989555 h 0.247402 v 0.494776 h 0.247405 v 0.494777 h 0.247403 v 0.247375 h 0.247374 v 0.247404 h 0.247343 v 0.247376 h 0.247402 v 0.247372 h 0.247408 v 0.247406 h 0.247403 v 0.247376 h 0.247376 v 0.494776 h 0.247402 v 0.494777 h 0.247403 v 0.247374 h 0.247403 v 0.494778 h 0.247313 v 0.742166 h 0.247377 v 1.484334 H 15.58552 V 19.048893 H 15.338116 V 18.554115 H 15.090743 V 18.059338 H 14.843368 V 17.811964 H 14.595964 V 17.564561 H 14.34856 v 0.247403 H 13.606407 V 16.575019 H 13.359004 V 16.327616 H 13.111629 V 16.08024 h -0.247403 v -0.247373 h -0.247405 v -0.494778 h -0.24737 v 1.731721 h -0.247376 v 0.247377 H 11.87467 v 0.247374 h -0.494778 v 0.247403 H 11.132517 V 17.564561 H 8.6586278 V 15.832838 H 7.6690739 v 1.731721 H 5.1951825 v 0.247404 H 4.9477789 V 17.564561 H 4.453001 V 17.317187 H 4.2056267 V 17.069811 H 3.9582524 V 15.585478 H 3.7108487 v 0.247402 h -0.247374 v 0.247376 H 3.216071 v 1.484335 H 2.9686673 v 0.247402 h -0.494778 v 0.247373 H 2.2265151 V 17.811995 H 1.7317374 v 0.247371 H 1.484363 v 0.494781 H 1.2369592 v 0.247372 H 0.98958497 v 0.494779 H 0.74218155 v 0.247405 H 0.4947778 v 0.247372 H 0.24740342 V 19.543703 H 0 V 18.306784 H 0.24740342 V 17.564617 H 0.4947778 V 17.069842 H 0.74218155 V 15.832895 H 0.98958497 V 15.338118 H 1.7317529 V 15.090714 H 1.9791565 V 14.84334 H 2.4739344 V 14.348564 H 2.721338 V 14.101187 H 2.9687121 V 13.606412 H 3.216116 V 13.111631 H 3.4635195 V 12.864228 H 3.7108938 V 12.616824 H 3.4635195 V 12.122047 H 3.7108938 V 10.885103 H 3.9582976 V 10.390325 H 4.2056267 V 10.142921 H 4.45303 V 9.8955173 H 4.947808 V 9.1533484 H 4.7004338 Z"
     style="fill:#d35fa7;stroke-width:0.247388"
     id="path3" />
  <path
     d="m 3.9582388,0 h 0.9895558 v 0.2474038 h 0.4947777 v 0.24740375 h 0.989556 V 0.7421816 H 6.6795318 V 0.49480755 h 0.742166 V 0.2474038 H 8.6586433 V 0.49480755 H 10.885144 V 0.2474038 h 0.494779 V 0 h 0.494774 v 0.2474038 h 0.247378 V 1.2369594 H 11.87467 v 1.9791157 h 0.247405 v 0.4947742 h 0.247404 v 0.9895593 h 0.247375 v 0.7421661 h 0.742165 v 0.2474035 h 0.989557 V 7.174312 H 14.101185 V 7.6690876 H 13.853781 V 7.9164919 H 13.606407 V 8.1638654 H 13.359004 V 8.4112697 H 12.864226 V 8.6586729 H 12.616821 V 8.9060761 H 11.627266 V 8.6586729 h 0.742169 V 8.4112697 h -0.24736 V 8.1638654 H 10.88513 V 8.4112697 H 9.1534054 V 8.1638654 H 3.9582388 V 8.6586432 H 4.7004045 V 8.9060475 H 3.7108487 V 8.6586432 H 3.4634747 V 8.4112389 H 2.9686969 V 8.1638324 H 2.7213224 V 7.9164622 H 2.4739189 V 7.669059 H 2.2265151 V 7.4216558 H 1.9791116 V 6.432097 H 1.7317081 V 5.6899312 H 3.2160416 V 5.4425571 H 3.7108194 V 4.4529994 H 3.9582231 V 3.7108333 H 4.2056267 V 2.9686676 H 4.45303 V 2.2264997 H 4.2056267 V 1.236944 H 3.9582524 Z"
     style="fill:#a31b4e;stroke-width:0.247388"
     id="path4" />
  <path
     d="m 5.1951825,10.885117 h 0.4947779 v 0.247374 h 0.2474053 v 2.226503 h 0.2473724 v 0.247404 h 0.2473746 v 0.742166 h 0.4947796 v 0.247401 H 9.1534087 V 14.348564 H 7.4216841 V 14.101187 H 7.1742939 V 13.606412 H 6.9268904 V 13.111636 H 6.6794868 v -0.74217 H 6.9268904 V 11.627301 H 6.6794868 v -0.494782 h 0.2474036 v -0.247373 h 2.4738907 v 0.247373 h 0.9895559 v 0.247406 h 0.494776 v -0.247406 h 0.247404 v 2.721282 h 0.742167 v 0.494775 h 0.247391 v 0.742173 h 0.494779 v 0.247402 h -0.247375 v 1.731722 h -0.247404 v 0.247373 H 11.87467 v 0.247371 h -0.494778 v 0.247407 H 11.132517 V 17.564617 H 8.6586278 V 15.8329 H 7.6690739 v 1.731717 H 5.1951825 v 0.247407 H 4.9477789 V 17.564617 H 4.453001 V 17.317246 H 4.2056267 V 17.069873 H 4.45303 v -2.473891 h 0.2474038 v 0.494781 H 4.947808 v 0.494772 H 8.6586433 V 15.338164 H 6.1847381 V 15.090761 H 5.1951825 Z"
     style="fill:#e97dda;stroke-width:0.247388"
     id="path8" />
  <path
     d="m 4.7004045,8.9060013 h 0.494778 v 0.49478 h 0.9895556 v 0.7421677 h 2.2265016 v 0.494775 H 6.4321281 v 0.247405 H 5.1951825 v 4.205612 h 0.9895556 v 0.247402 h 2.4738897 v 0.247376 H 4.9477946 V 15.090745 H 4.7004202 V 14.595967 H 4.4530167 v 2.473892 H 3.9582388 v -1.48434 H 3.7108354 v 0.247404 H 3.4634609 v 0.247375 H 3.216071 v 1.48433 H 2.9686673 v 0.247405 h -0.494778 v 0.247376 H 2.2265149 V 17.812034 H 1.7317374 V 18.05941 H 1.484363 v 0.494778 H 1.2369592 v 0.247373 H 0.98958497 V 19.29634 H 0.74218155 v 0.247403 H 0.4947778 v 0.247373 H 0.24740342 V 19.543743 H 0 V 18.306784 H 0.24740342 V 17.564617 H 0.4947778 V 17.069842 H 0.74218155 V 15.832895 H 0.98958497 V 15.338118 H 1.7317529 V 15.090714 H 1.9791565 V 14.84334 H 2.4739344 V 14.348564 H 2.721338 V 14.101187 H 2.9687121 V 13.606412 H 3.216116 V 13.111631 H 3.4635195 V 12.864228 H 3.7108938 V 12.616824 H 3.4635195 V 12.122047 H 3.7108938 V 10.885103 H 3.9582976 V 10.390325 H 4.2056267 V 10.142921 H 4.45303 V 9.8955173 H 4.947808 V 9.1533484 H 4.7004338 Z"
     style="fill:#ca9279;stroke-width:0.247388"
     id="path9" />
  <path
     d="m 3.4634609,23.74934 h 1.7317216 v 1.236946 H 5.9373501 V 24.491511 H 5.6899466 V 24.244106 H 6.1847381 V 23.99673 h 3.2160562 v 2.47389 H 9.1534054 V 24.244118 H 7.1742939 v 1.979117 h 0.2474039 v 1.484332 h 0.2473761 v 2.473892 H 7.4216978 v 0.247374 H 7.1742939 v 0.247401 H 6.4321283 v 0.247373 H 4.7004045 V 30.676234 H 4.2056267 V 30.428833 H 3.9582524 V 29.934054 H 3.7108487 V 28.449719 H 3.9582524 V 27.212787 H 4.2056267 V 26.47062 H 4.45303 V 25.481067 H 4.7004338 V 24.738898 H 4.947808 V 23.99673 H 3.4634747 Z"
     style="fill:#6b3868;stroke-width:0.247388"
     id="path10" />
  <path
     d="M 2.4739053,20.285895 H 2.968683 v 0.742168 H 2.7213086 v 0.494775 h 1.4843181 v 0.247376 h 1.4843337 v 0.247402 h 0.7421677 v 0.247378 H 9.4007943 V 22.017616 H 10.88513 v -0.247402 h 0.989554 v -0.247376 h 1.979112 v -0.247403 h 0.247389 v -0.494779 h 0.742168 v 0.247376 h 0.247374 v 0.494777 h -0.247374 v 0.247376 h -0.247402 v 0.247403 h -0.494766 v 0.247375 h -0.494778 v 0.247372 h -1.731723 v 0.247405 h -0.742167 v 0.247376 H 5.1951825 V 22.75974 H 4.4530167 V 22.512335 H 2.968683 V 22.264963 H 2.2265149 V 22.017588 H 1.7317374 V 21.770185 H 1.484363 v 0.247403 H 1.2369592 v 0.247375 H 1.484363 v 0.494777 h 0.2473744 v 0.247376 H 1.2369592 V 22.512335 H 0.98958497 V 22.264963 H 0.74218155 V 22.017588 H 0.98958497 V 21.770185 H 1.2369592 V 21.522809 H 1.484363 v -0.494776 h 0.494778 v -0.247377 h 0.2473741 v -0.247401 h 0.2473742 z"
     style="fill:#562c73;stroke-width:0.247388"
     id="path11" />
  <path
     d="m 3.9582388,0 h 0.9895558 v 0.2474038 h 0.4947777 v 0.24740375 h 0.989556 V 0.7421816 H 6.6795318 V 0.49480755 h 0.742166 V 0.2474038 H 8.6586433 V 0.49480755 H 10.885144 V 0.2474038 h 0.494779 V 0 h 0.494774 v 0.2474038 h 0.247378 V 1.2369594 H 11.87467 V 2.968685 H 11.627266 V 3.2160595 H 11.132517 V 3.463463 H 10.885113 V 2.968689 H 10.390337 V 3.2160632 H 10.142965 V 2.4738954 H 9.8955853 V 1.7317295 H 9.4008086 V 1.2369518 H 7.9164756 V 1.4843553 H 7.6690718 V 1.2369518 H 7.1742939 V 1.4843553 H 6.9268904 V 1.7317295 H 6.6794868 V 1.4843553 H 6.4320831 V 2.473911 H 5.9373052 V 1.7317218 H 5.1951825 V 2.2264997 H 4.9477789 V 2.4739054 H 4.7004045 V 3.4634592 H 4.2056267 V 2.9686813 H 4.45303 V 2.2264997 H 4.2056267 V 1.236944 H 3.9582524 Z"
     style="fill:#d12075;stroke-width:0.247388"
     id="path12" />
  <path
     d="m 11.379907,23.74934 h 1.731722 v 0.247405 H 11.627294 V 24.9863 h 0.247403 v 0.742168 h 0.247378 v 0.989551 h 0.247404 v 0.742173 h 0.247375 v 1.236943 h 0.247404 v 1.236945 h -0.247404 v 0.494776 h -0.494779 v 0.247403 h -0.742168 v 0.247374 H 10.142965 V 30.676261 H 9.6481832 V 30.428857 H 9.1534054 V 29.934081 H 8.9060011 v -2.226503 h 0.2474043 v 0.989557 h 0.2474032 v 0.494774 h 1.4843394 v -0.98955 H 10.63774 v -0.494781 h 0.247408 V 25.728469 H 10.63774 v -0.742168 h 0.742167 z"
     style="fill:#9e5b9a;stroke-width:0.247388"
     id="path13" />
  <path
     d="m 4.7004045,8.9060013 h 0.494778 v 0.49478 h 0.9895556 v 0.7421677 h 2.2265016 v 0.494775 H 6.4321281 v 0.247405 H 5.1951825 v 4.205612 h 0.9895556 v 0.247402 h 2.4738897 v 0.247376 H 4.9477946 V 15.090745 H 4.7004202 V 14.595967 H 4.4530167 v 2.473892 h -0.24739 V 15.090745 H 3.9582524 V 14.84334 H 4.2056267 V 13.359012 H 3.9582524 V 13.111604 H 3.7108487 V 12.616827 H 3.4634747 V 12.12205 h 0.247374 V 10.885105 H 3.9582524 V 10.390327 H 4.2056267 V 10.142925 H 4.45303 V 9.8955195 H 4.947808 V 9.1533528 H 4.7004338 Z"
     style="fill:#b65e95;stroke-width:0.247388"
     id="path15" />
  <path
     d="m 6.926906,10.885117 h 2.4738883 v 0.247374 h 0.2474032 v 0.247403 h 0.2474054 v 0.247403 h 0.2473621 v 0.247375 h 0.247401 v 0.989558 h -0.247401 v 0.989553 H 9.8955853 v 0.247404 H 9.4008086 v 0.247378 H 7.4216978 V 14.101187 H 7.1742939 V 13.606414 H 6.9268904 V 13.111636 H 6.6794868 v -0.74217 H 6.9268904 V 11.627301 H 6.6794868 v -0.49478 h 0.2474036 z"
     style="fill:#f6eef1;stroke-width:0.247388"
     id="path16" />
  <path
     d="m 12.616852,12.122062 h 0.247404 v 0.989556 h 0.247404 v 0.494775 h 0.247405 v 0.494776 h 0.247403 v 0.247374 h 0.247374 v 0.247404 h 0.247343 v 0.247372 h 0.247402 v 0.247378 h 0.247408 v 0.247406 h 0.247403 v 0.247374 h 0.247376 v 0.494777 h 0.247402 v 0.494778 h 0.247403 v 0.247374 h 0.247403 v 0.49478 h 0.247313 v 0.742163 h 0.247377 v 1.484335 H 15.58552 V 19.048905 H 15.338116 V 18.554128 H 15.090743 V 18.059349 H 14.843368 V 17.811976 H 14.595964 V 17.564574 H 14.34856 v 0.247402 H 13.606407 V 16.57503 h -0.247403 v -0.247402 h -0.247375 v -0.247376 h -0.247403 v -0.247376 h -0.247405 v -0.494775 h 0.247405 v -0.494782 h -0.247405 v -0.494775 h -0.24737 V 12.86421 h 0.24737 z"
     style="fill:#f0c09b;stroke-width:0.247388"
     id="path17" />
  <path
     d="m 5.1951825,10.885117 h 0.4947779 v 0.247374 h 0.2474053 v 2.226503 h 0.2473724 v 0.247404 h 0.2473746 v 0.742166 h 0.4947796 v 0.247401 h 2.2265164 v -0.247401 h 0.247401 v -0.247377 h 0.4947767 v -0.247405 h 0.2473786 v -0.989554 h 0.247401 V 11.874672 H 10.142965 V 11.627268 H 9.8955853 V 11.379894 H 9.6481832 v -0.247403 h 0.7421678 v 0.247403 h 0.494779 v -0.247403 h 0.247404 v 3.958223 H 5.1951979 Z"
     style="fill:#fb98f5;stroke-width:0.247388"
     id="path18" />
  <path
     d="M 3.9582388,8.1638368 H 9.1534054 V 8.4112125 H 10.88513 V 8.1638368 h 1.236945 v 0.2473757 h 0.247404 v 0.2473757 h -0.742183 v 0.2474021 h -0.494779 v 0.4947778 h -0.989552 v 0.49478 H 9.8955853 V 10.142951 H 8.9060319 V 9.8955481 H 9.153434 V 9.6481416 H 9.4008383 V 9.4007373 H 7.1742939 v 0.49478 H 8.4112397 V 10.142921 H 6.1847381 V 9.4007549 H 5.1951825 V 8.9059771 H 4.7004045 V 8.6585739 H 3.9582388 Z"
     style="fill:#4e0207;stroke-width:0.247388"
     id="path19" />
  <path
     d="m 11.132517,23.74934 h 0.247375 v 1.236946 H 10.63774 v 0.742168 h 0.247408 v 1.979111 H 10.63774 v 0.494778 h 0.247408 v 0.989553 H 9.4008086 V 28.697118 H 9.1534054 V 26.718007 H 9.4008086 V 24.491511 H 9.6482151 V 24.244106 H 10.637771 V 23.99673 h 0.494779 z"
     style="fill:#4b1e47;stroke-width:0.247388"
     id="path20" />
  <path
     d="M 4.2056267,26.470617 H 4.45303 v 0.742167 H 4.7004338 V 27.46019 H 4.947808 v 0.247401 H 4.7004338 v 0.247376 H 4.45303 V 27.460189 H 4.2056267 V 28.94452 H 4.45303 v 0.247375 h 2.4738897 v -0.247376 h 0.2474056 v -0.247402 h 0.2474036 v -0.989553 h 0.2473742 v 2.473889 H 7.4217289 v 0.247373 h -0.247435 v 0.247403 H 6.4321283 v 0.247373 H 4.7004045 V 30.676228 H 4.2056267 V 30.428826 H 3.9582524 V 29.934047 H 3.7108487 v -1.484333 h 0.2474037 v -1.236927 h 0.2473743 z"
     style="fill:#92598e;stroke-width:0.247388"
     id="path21" />
  <path
     d="M 7.1742939,9.4007813 H 9.4007943 V 9.6481581 H 9.1534054 V 9.8955327 H 8.9060011 v 0.2474033 h 0.49478 V 10.39034 H 9.1534054 v 0.247374 h 0.7421678 v 0.247404 h 0.4947778 v 0.247403 H 9.4007943 V 10.885118 H 6.926906 v 0.247403 H 6.6795025 v 0.494777 H 6.926906 v 0.742168 H 6.6795025 v 0.742167 H 6.926906 v 0.494781 h 0.2474035 v 0.494775 h 0.2474038 v 0.247377 h 1.7316921 v 0.247401 H 6.926906 V 14.348566 H 6.4321283 V 13.606393 H 6.1847381 V 13.35899 H 5.9373345 V 11.132489 H 5.6899312 V 10.885085 H 6.4320991 V 10.637682 H 8.4112104 V 9.895558 H 7.1742939 Z"
     style="fill:#b28295;stroke-width:0.247388"
     id="path22" />
  <path
     d="m 6.1847381,23.996728 h 3.2160562 v 2.473889 H 9.1534054 V 24.244116 H 7.1742939 v 1.979113 h 0.2474039 v 1.484336 H 7.1742939 v 0.247372 H 6.9268904 v 0.247405 H 5.9373345 V 27.707565 H 6.1847381 V 26.718007 H 5.9373345 v -0.494778 h 0.2474036 z"
     style="fill:#8e678a;stroke-width:0.247388"
     id="path23" />
  <path
     d="m 14.101185,21.522838 h 0.247402 v 0.494778 h -0.247402 v 0.247378 h -0.494778 v 0.247402 H 11.874684 V 22.7598 h -0.742167 v 0.247374 H 5.1951825 V 22.7598 H 4.4530167 V 22.512396 H 3.9582388 v -0.247402 h 1.2369437 v 0.247402 H 10.63774 v -0.247402 h 0.742167 v -0.247378 h 1.484334 v -0.247402 h 1.236944 z"
     style="fill:#581c80;stroke-width:0.247388"
     id="path24" />
  <path
     d="m 10.142965,15.338115 h 0.494775 v 0.247376 h 0.989554 v 1.484336 H 11.379892 V 16.822422 H 11.132517 V 16.32765 h -0.247404 v 1.236947 H 8.6586278 v -0.247406 h 0.2473733 v -1.731687 h 1.2369639 z"
     style="fill:#fb7be9;stroke-width:0.247388"
     id="path25" />
  <path
     d="m 11.379907,0 h 0.494777 v 0.2474038 h 0.247391 V 1.2369594 H 11.87467 V 2.968685 H 11.627266 V 2.4739054 H 11.379863 V 2.2265291 H 11.132517 V 1.9791547 H 10.885113 V 1.7317511 H 10.637709 V 1.4843478 H 10.142965 V 1.236944 H 9.8955853 V 0.98954014 H 8.9060308 V 0.7421662 H 6.6795161 V 0.49476245 h 0.742168 V 0.2473589 H 8.6586278 V 0.49476245 H 10.88513 V 0.2473589 h 0.494777 z"
     style="fill:#f59be9;stroke-width:0.247388"
     id="path26" />
  <path
     d="m 5.9373501,26.718007 h 0.247388 v 0.989557 H 5.9373345 v 0.494776 h 0.9895559 v -0.247404 h 0.2474035 v -0.247372 h 0.2474039 v 0.989552 H 7.1742939 v 0.247403 H 6.9268904 v 0.247376 H 4.453001 V 28.944519 H 4.2056267 v -1.48433 H 4.45303 v 0.494778 H 4.7004338 V 27.707591 H 4.947808 v -0.2474 h 0.989556 z"
     style="fill:#85407f;stroke-width:0.247388"
     id="path27" />
  <path
     d="m 5.1951825,10.885117 h 0.4947779 v 0.247374 h 0.2474053 v 2.226503 h 0.2473724 v 0.247404 h 0.2473746 v 0.742166 h 0.4947796 v 0.247401 H 9.1534087 V 14.84334 H 5.6899624 v 0.247374 H 5.1951825 Z"
     style="fill:#f07cd4;stroke-width:0.247388"
     id="path28" />
  <path
     d="m 14.101185,14.843337 h 0.247402 v 0.247404 h 0.247408 v 0.247402 h 0.247403 v 0.247376 h 0.247376 v 0.49478 h 0.247402 v 0.494773 h 0.247403 v 0.247378 h 0.247403 v 0.494776 h 0.247313 v 0.742171 h 0.247377 v 1.484329 H 15.58552 v -0.247401 h 0.494775 v -0.49478 H 15.832892 V 18.306767 H 15.58549 v -0.247403 h -0.247404 v -0.247372 h -0.247343 v -0.247405 h -0.247375 v -0.49478 h -0.494781 v -0.247402 h -0.247402 v -0.494776 h -0.247404 v -1.236901 h 0.247404 z"
     style="fill:#f4d4a9;stroke-width:0.247388"
     id="path29" />
  <path
     d="M 4.9477946,11.874672 H 5.195198 v 3.216057 h 0.9895562 v 0.247404 h 2.4738891 v 0.247376 H 4.947808 V 15.090728 H 4.7004338 V 14.595951 H 4.45303 v 2.473891 H 4.2056267 V 15.090728 H 3.9582524 V 14.843356 H 4.2056267 V 13.35902 H 3.9582524 V 13.111647 H 3.7108487 v -0.247404 h 0.494778 v 0.247404 h 0.7421679 z"
     style="fill:#ab5293;stroke-width:0.247388"
     id="path30" />
  <path
     d="m 11.132517,13.853781 h 0.742167 v 0.494781 h 0.247391 v 0.742167 h 0.494779 v 0.247404 h -0.247375 v 1.731725 h -0.247404 v 0.247369 H 11.87467 v 0.247379 h -0.494778 v 0.247403 H 11.132517 V 17.564606 H 10.885113 V 16.32766 h 0.247404 v 0.494777 h 0.247375 v 0.247405 h 0.247404 v -1.484333 h -0.494779 z"
     style="fill:#f298ee;stroke-width:0.247388"
     id="path31" />
  <path
     d="m 10.63774,25.72845 h 0.247408 v 1.979114 H 10.63774 v 0.494776 h 0.247408 v 0.989556 H 9.4008086 V 28.697117 H 9.1534054 v -1.97911 h 0.2474032 v 0.742168 H 10.63774 v -0.742168 h -0.494775 v -0.49478 h 0.494775 z"
     style="fill:#814678;stroke-width:0.247388"
     id="path32" />
  <path
     d="m 13.606407,20.038509 h 0.247374 v 0.247403 h 0.247404 v 0.247375 h 0.247402 v 0.247402 h -0.247402 v 0.494781 h -0.247404 v 0.247401 H 11.87467 v 0.247373 h -0.989557 v 0.247404 H 6.6795161 V 21.770244 H 9.1534054 V 21.522871 H 10.390351 V 21.27547 h 1.979115 v -0.247378 h 1.236941 z"
     style="fill:#622292;stroke-width:0.247388"
     id="path33" />
  <path
     d="m 8.9060176,27.707564 h 0.2474043 v 0.989552 H 9.400824 v 0.49478 h 1.236947 v 0.247401 h -0.247405 v 0.494782 h 0.247405 v 0.247403 h 0.989555 v 0.494779 h -0.247403 v 0.247372 H 10.142965 V 30.676261 H 9.6481832 V 30.428857 H 9.1534054 V 29.934079 H 8.9060011 Z"
     style="fill:#915991;stroke-width:0.247388"
     id="path34" />
  <path
     d="M 2.7212932,7.1742823 H 2.9686673 V 7.4216569 H 3.4634451 V 7.1742823 H 4.2056267 V 7.4216569 H 4.45303 V 7.6690612 H 5.937364 V 7.9164644 H 7.4216978 V 8.1638368 H 3.9582524 V 8.6586157 H 4.7004202 V 8.9060189 H 3.7108645 V 8.6586157 H 3.4634901 V 8.4112125 H 2.9687121 V 8.1638093 H 2.721338 V 7.9164336 H 2.4739344 V 7.4216558 H 2.721338 Z"
     style="fill:#750a2e;stroke-width:0.247388"
     id="path35" />
  <path
     d="m 12.369466,27.460176 h 0.247372 v 1.236942 h 0.247403 v 1.236949 h -0.247403 v 0.494772 h -0.494763 v 0.247406 H 11.627294 V 30.181467 H 10.63774 V 29.934063 H 10.390337 V 29.439288 H 10.63774 V 29.19188 h 1.484335 v -0.494774 h 0.247404 z"
     style="fill:#bf7ab6;stroke-width:0.247388"
     id="path36" />
  <path
     d="m 3.9582388,0 h 0.9895558 v 0.2474038 h 0.4947777 v 0.24740375 h 0.989556 V 0.7421816 H 6.6795318 V 0.98958546 H 6.4321283 V 1.2369887 H 6.1847381 V 1.4843926 H 4.7004045 V 1.7317669 H 4.453001 V 2.2265446 H 4.2056267 V 1.2369887 H 3.9582524 Z"
     style="fill:#f3afe9;stroke-width:0.247388"
     id="path37" />
  <path
     d="m 7.6690718,12.616839 h 0.989556 v 0.247402 H 8.411224 v 0.494775 h 0.9895571 v 0.247404 h 0.4947778 v -0.247404 h 0.2474061 v 0.494776 H 9.8955853 v 0.247405 H 9.4008086 v 0.247374 H 7.4216978 V 14.101197 H 7.1742939 V 13.606422 H 6.9268904 V 13.359017 H 7.9164462 V 12.864241 H 7.6690426 Z"
     style="fill:#eed7ea;stroke-width:0.247388"
     id="path38" />
  <path
     d="m 11.379907,9.895558 h 0.494777 v 0.247405 h 0.247391 v 0.247401 h 0.247404 v 0.494775 h 0.247375 v 1.979116 h -0.989558 v -1.731726 h -0.247404 z"
     style="fill:#9d56e3;stroke-width:0.247388"
     id="path39" />
  <path
     d="m 6.6795161,0.74216972 h 2.2265015 v 0.2473746 H 7.6690718 V 1.2369186 H 7.1742939 V 1.484322 H 6.9268904 V 1.7317255 H 6.6794868 V 1.484322 H 6.4320831 V 2.4738779 H 5.9373052 V 1.7317256 H 5.1951825 V 2.2264997 H 4.9477789 V 2.4739054 H 4.7004045 V 3.4634592 H 4.2056267 V 2.968685 H 4.45303 V 1.7317394 H 4.7004338 V 1.4843358 H 6.1847381 V 1.2369323 H 6.4321125 V 0.98955785 H 6.679518 Z"
     style="fill:#aa1e62;stroke-width:0.247388"
     id="path40" />
  <path
     d="m 14.101185,20.780671 h 0.742168 v 0.247376 h 0.247374 v 0.494776 h -0.247374 v 0.247379 h -0.247402 v 0.247402 h -0.247405 v -0.494781 h -0.247361 v 0.247379 h -1.236944 v 0.247402 h -1.484334 v 0.247371 H 10.63774 v 0.247378 H 9.4007943 V 22.017572 H 10.88513 v -0.247403 h 0.989554 v -0.247373 h 1.979112 v -0.247405 h 0.247389 z"
     style="fill:#4a166d;stroke-width:0.247388"
     id="path41" />
  <path
     d="m 0.49479342,17.069837 h 0.24740364 v 0.247375 H 1.2369747 v 0.247404 H 1.7317529 V 18.05939 H 1.4843786 v 0.494777 H 1.2369592 v 0.247405 H 0.98958497 v 0.494777 H 0.74218155 v 0.247403 H 0.4947778 v 0.247375 H 0.24740342 V 19.543752 H 0 V 18.306784 H 0.24740342 V 17.564617 H 0.4947778 Z"
     style="fill:#d7a597;stroke-width:0.247388"
     id="path42" />
  <path
     d="m 9.6481832,11.132504 h 0.7421678 v 0.247403 h 0.494779 v -0.247403 h 0.247404 v 3.710833 H 10.637756 V 13.359009 H 10.390351 V 11.87467 H 10.142965 V 11.627294 H 9.8955853 V 11.379892 H 9.6481832 Z"
     style="fill:#f9b8f4;stroke-width:0.247388"
     id="path43" />
  <path
     d="m 7.4216841,27.707564 h 0.2473743 v 2.473889 H 7.4216841 v 0.247373 H 7.1742939 v 0.247403 H 6.9268904 V 29.934064 H 6.6794868 v 0.247403 H 5.6899312 v -0.494778 h 0.2474034 v -0.494778 h 0.9895558 v -0.247376 h 0.2474035 v -0.247406 h 0.2474039 z"
     style="fill:#b974a9;stroke-width:0.247388"
     id="path44" />
  <path
     d="M 0.98957144,15.585504 H 1.4843493 v 0.247404 H 1.2369592 v 0.742165 H 1.484363 v 0.247377 h 0.2473744 v 0.247405 H 2.4739053 V 16.82245 H 2.7213086 V 16.575074 H 2.968683 v 1.236947 H 2.4739053 v 0.247373 H 2.2265149 V 17.81202 H 1.7317374 V 17.564616 H 1.2369592 V 17.317211 H 0.74218155 v -1.484335 h 0.24740342 z"
     style="fill:#9b445e;stroke-width:0.247388"
     id="path45" />
  <path
     d="M 4.2056267,26.470617 H 4.45303 v 0.742167 H 4.7004338 V 27.46019 H 4.947808 v 0.247401 H 4.7004338 v 0.247376 H 4.45303 V 27.460189 H 4.2056267 V 28.94452 H 4.45303 v 0.247375 h 0.494778 v 0.247402 H 4.7004338 v 0.989559 H 3.9582682 V 29.934078 H 3.7108645 v -1.484333 h 0.2474037 v -1.236958 h 0.2473585 z"
     style="fill:#916d8d;stroke-width:0.247388"
     id="path46" />
  <path
     d="M 7.4216841,0.24739 H 8.6586278 V 0.49479358 H 10.88513 V 1.7317374 H 10.637725 V 1.4843339 h -0.49476 V 1.2369304 H 9.8955853 V 0.9895562 H 8.9060308 V 0.7421816 H 6.6795161 V 0.49477829 H 7.421684 Z"
     style="fill:#e996d2;stroke-width:0.247388"
     id="path47" />
  <path
     d="m 6.1847381,25.233674 h 0.2473746 v 0.989554 h 0.4947796 v 0.494779 H 6.6794868 v 0.742167 h 0.4947799 v -1.236948 h 0.2474035 v 1.484338 H 7.1742939 v 0.247372 H 6.9268904 v 0.247402 H 5.9373345 V 27.707564 H 6.1847381 V 26.718007 H 5.9373345 v -0.494781 h 0.2474036 z"
     style="fill:#97618d;stroke-width:0.247388"
     id="path48" />
  <path
     d="M 5.1951825,1.7317256 H 5.9373501 V 3.4634453 H 5.6899466 v 0.247404 H 5.442543 V 3.2160711 H 5.1951825 V 3.7108493 H 4.4530167 v 0.2474032 h -0.24739 V 3.4634749 H 4.7004045 V 2.4739189 H 4.9477789 V 2.2265152 h 0.2474036 z"
     style="fill:#931448;stroke-width:0.247388"
     id="path49" />
  <path
     d="m 6.1847381,11.874672 h 0.2473746 v 0.247376 h 0.2474054 v 0.989555 h 0.2474037 v 0.494776 h 0.2474036 v 0.494778 H 7.421729 v 0.247373 h 1.7316786 v 0.247404 H 6.926906 V 14.34853 H 6.4321283 V 13.606393 H 6.1847381 Z"
     style="fill:#c3a7be;stroke-width:0.247388"
     id="path50" />
  <path
     d="m 4.2056267,10.142949 h 0.7421679 v 1.484335 H 4.7004202 v 0.989555 H 4.4530167 v -0.247405 h -0.24739 V 12.122059 H 3.9582524 V 10.39034 h 0.2473743 z"
     style="fill:#743db5;stroke-width:0.247388"
     id="path51" />
  <path
     d="m 13.359019,5.6899487 h 0.989557 V 7.1742823 H 14.101185 V 7.669059 H 13.853781 V 7.9164622 H 13.606407 V 8.1638324 H 13.359004 V 7.669059 H 13.111629 V 7.1742823 h 0.247408 V 6.9269077 h 0.247402 V 6.43213 h 0.247374 V 6.1847269 H 13.606439 V 5.9373231 h -0.247402 z m -0.494778,2.4738881 h 0.494778 v 0.2473757 h -0.494778 z"
     style="fill:#9a5267;stroke-width:0.247388"
     id="path52" />
  <path
     d="m 15.090743,16.575059 h 0.494777 v 0.247376 h 0.247404 v 0.494777 h 0.247371 v 0.742167 h 0.247377 v 1.484336 H 15.58552 v -0.247404 h 0.494775 V 18.801537 H 15.832892 V 18.306759 H 15.58549 V 18.059355 H 15.338086 V 17.81198 h -0.247343 z"
     style="fill:#f3dbc1;stroke-width:0.247388"
     id="path53" />
  <path
     d="m 10.63774,15.585504 h 0.989554 v 1.484338 H 11.379892 V 16.822437 H 11.132517 V 16.327662 H 10.885113 V 17.56461 H 8.6586278 V 17.317204 H 10.63774 Z"
     style="fill:#fbbbfc;stroke-width:0.247388"
     id="path54" />
  <path
     d="m 11.132517,13.853781 h 0.742167 v 0.494781 h 0.247391 v 0.742167 h 0.494779 v 0.247404 h -0.247375 v 1.731725 h -0.247404 v 0.247369 H 11.87467 v -2.721276 h -0.742153 z"
     style="fill:#db8dc8;stroke-width:0.247388"
     id="path55" />
  <path
     d="M 4.2056267,27.460176 H 4.45303 v 0.494774 h 0.2474038 v 0.247405 h 0.7421681 v 0.247375 h 0.4947778 v 0.742166 H 4.453046 V 28.944519 H 4.2056267 Z"
     style="fill:#572359;stroke-width:0.247388"
     id="path56" />
  <path
     d="m 13.853796,16.575059 h 0.247389 v 0.247376 h 0.247402 v 0.247402 h 0.494781 v 0.494779 h 0.247376 v 0.247404 h 0.247404 v 0.247376 h 0.247402 v 0.247402 h 0.247405 v 0.494777 h 0.24734 v 0.494779 H 15.58552 V 19.048979 H 15.338116 V 18.5542 H 15.090743 V 18.059424 H 14.843368 V 17.812046 H 14.595964 V 17.564643 H 14.34856 v 0.247403 h -0.494779 z"
     style="fill:#b4887b;stroke-width:0.247388"
     id="path57" />
  <path
     d="M 5.4425723,9.1533957 H 8.4112397 V 9.4007681 H 7.1742939 v 0.49478 H 8.4112397 V 10.142951 H 6.1847381 V 9.4007835 H 5.4425723 Z"
     style="fill:#562d44;stroke-width:0.247388"
     id="path58" />
  <path
     d="m 9.1534054,27.707564 h 0.2474032 v 0.494776 h 1.4843394 v 0.989556 H 9.4008086 V 28.697117 H 9.1534054 Z"
     style="fill:#592358;stroke-width:0.247388"
     id="path59" />
  <path
     d="m 11.132517,12.864229 h 0.247375 v 0.49478 h 0.247404 v -0.247408 h 0.494779 v -0.247376 h 0.247404 v 1.484332 h 0.247375 v 0.494777 h 0.247404 v 0.494779 H 12.616854 V 15.09071 H 12.122075 V 14.348541 H 11.87467 v -0.494778 h -0.742153 z"
     style="fill:#be6467;stroke-width:0.247388"
     id="path60" />
  <path
     d="m 5.1951825,10.885117 h 0.4947779 v 0.247374 H 5.9373657 V 12.12205 H 5.6899604 v 1.484331 H 5.4425568 v 0.2474 H 5.1951825 Z"
     style="fill:#f681d9;stroke-width:0.247388"
     id="path61" />
  <path
     d="m 8.9060176,27.707564 h 0.2474043 v 0.989552 H 9.400824 v 0.49478 h 0.4947789 v 1.236946 H 9.1534054 V 29.934064 H 8.9060011 Z"
     style="fill:#825c7a;stroke-width:0.247388"
     id="path62" />
  <path
     d="M 4.9477946,11.874672 H 5.195198 v 2.721279 H 4.9477946 V 14.101173 H 4.2056267 V 13.359012 H 3.9582524 V 13.111633 H 3.7108487 v -0.247404 h 0.494778 v 0.247404 h 0.7421679 z"
     style="fill:#8e3e59;stroke-width:0.247388"
     id="path63" />
  <path
     d="M 7.1742939,9.4007813 H 9.4007943 V 9.6481581 H 9.1534054 V 9.8955327 H 8.9060011 v 0.2474033 h 0.49478 V 10.39034 H 9.1534054 v 0.247374 H 8.4112397 V 9.895558 H 7.1742939 Z"
     style="fill:#bf81a3;stroke-width:0.247388"
     id="path64" />
  <path
     d="m 5.1951825,0.74216972 h 1.4843336 v 0.2473746 H 6.4321125 V 1.2369186 H 6.1847381 V 1.484322 H 4.7004045 V 1.7317255 H 4.453001 V 2.2265016 H 4.2056267 V 1.2369459 H 4.45303 V 0.98954234 h 0.7421524 z"
     style="fill:#e878c1;stroke-width:0.247388"
     id="path65" />
  <path
     d="m 14.101185,21.522838 h 0.247402 v 0.494778 h -0.247402 v 0.247378 h -0.494778 v 0.247402 h -1.979113 v -0.49478 h 1.236947 v -0.247402 h 1.236944 z"
     style="fill:#5d1e88;stroke-width:0.247388"
     id="path66" />
  <path
     d="m 11.379907,23.74934 h 1.731722 v 0.247405 H 11.627294 V 24.9863 h 0.247403 v 0.494776 h -0.247403 v -0.247375 h -0.247402 v 0.247377 h -0.247375 v 0.742167 h -0.247404 v -0.494776 h -0.247404 v -0.742168 h 0.74217 z"
     style="fill:#ac88ab;stroke-width:0.247388"
     id="path67" />
  <path
     d="m 13.606407,20.038509 h 0.247374 v 0.247403 h 0.247404 v 0.247375 h 0.247402 v 0.247402 h -0.247402 v 0.494781 h -0.247404 v 0.247401 H 11.627294 V 21.27547 h 0.742172 v -0.247378 h 1.236941 z"
     style="fill:#6c3695;stroke-width:0.247388"
     id="path68" />
  <path
     d="m 7.6690718,15.832893 h 0.989556 v 1.484334 h -0.989556 z"
     style="fill:#8a618a;stroke-width:0.247388"
     id="path69" />
  <path
     d="M 2.4739053,7.669059 H 3.7108487 V 7.9164622 H 4.9477946 V 8.1638324 H 3.9582388 V 8.6586135 H 4.7004045 V 8.9060167 H 3.7108487 V 8.6586135 H 3.4634747 V 8.4112103 H 2.9686969 V 8.1638049 H 2.7213244 V 7.9164292 H 2.4739189 Z"
     style="fill:#75454b;stroke-width:0.247388"
     id="path70" />
  <path
     d="m 11.132517,23.74934 h 0.247375 v 1.236946 H 10.63774 v 0.742168 H 10.390337 V 25.481049 H 9.6481832 v -0.247374 h 0.7421678 v -0.742169 h -0.247386 v -0.247403 h 0.494775 v -0.247375 h 0.494777 z"
     style="fill:#743a70;stroke-width:0.247388"
     id="path71" />
  <path
     d="M 3.9582388,8.1638368 H 5.9373501 V 8.4112125 H 5.6899466 V 8.9059881 H 5.9373501 V 9.1533935 H 5.4425723 V 9.4007659 H 5.1951825 V 8.9059881 H 4.7004045 V 8.6585838 H 3.9582388 Z"
     style="fill:#4b0207;stroke-width:0.247388"
     id="path72" />
  <path
     d="m 12.864241,15.090728 h 0.247404 v 0.247405 h 0.247404 v 0.247376 h 0.247403 v 0.494775 h 0.247377 v 0.247376 h 0.247356 v 0.247403 h -0.247404 v 1.236946 H 13.606407 V 16.575063 H 13.359004 V 16.32766 h -0.247375 v -0.247376 h -0.247403 v -0.247371 h -0.247405 v -0.49478 h 0.247405 z"
     style="fill:#caa08f;stroke-width:0.247388"
     id="path73" />
  <path
     d="m 9.4007943,26.223229 h 0.7421707 v 0.494778 h 0.494775 v 0.742169 H 9.4007943 Z"
     style="fill:#501f4c;stroke-width:0.247388"
     id="path74" />
  <path
     d="m 14.101185,20.780671 h 0.742168 v 0.247376 h 0.247374 v 0.494776 h -0.247374 v 0.247379 h -0.247402 v 0.247402 h -0.247405 v -0.494781 h -0.247361 v 0.247379 h -1.484333 v -0.247379 h 1.236944 v -0.247404 h 0.247389 z"
     style="fill:#583272;stroke-width:0.247388"
     id="path75" />
  <path
     d="M 2.4739053,20.285895 H 2.968683 v 0.742168 H 2.7213086 v 0.494775 h 0.494778 v 0.247376 H 2.2265149 V 21.522838 H 1.7317374 v -0.494775 h 0.2474035 v -0.247377 h 0.247374 v -0.247404 h 0.2473744 z"
     style="fill:#482660;stroke-width:0.247388"
     id="path76" />
  <path
     d="m 12.369466,7.669059 h 0.989553 V 8.1638324 H 12.864241 V 8.6586135 H 12.616838 V 8.9060167 H 11.627282 V 8.6586135 h 0.742169 V 8.4112103 H 12.122075 V 8.1638049 H 11.379907 V 7.9164292 h 0.989559 z"
     style="fill:#843945;stroke-width:0.247388"
     id="path77" />
  <path
     d="m 2.4739053,14.348562 h 0.2474033 v 0.742166 H 2.2265149 v 0.247405 H 1.9791116 v 0.247376 h 0.2474033 v 0.247404 H 1.9791116 v 0.247371 H 1.7317081 V 16.32766 H 1.4843338 v 0.247403 H 1.2369592 V 15.832895 H 1.484363 V 15.585496 H 0.98958497 V 15.338118 H 1.7317529 V 15.090714 H 1.9791565 V 14.84334 h 0.4947779 z"
     style="fill:#bd9688;stroke-width:0.247388"
     id="path78" />
  <path
     d="m 13.359019,14.348562 h 0.494777 v 0.247402 h 0.247389 v 0.494777 h -0.247404 v 0.989552 h -0.247374 v -0.494777 h -0.247403 v -0.247377 h -0.247375 v -0.247403 h -0.247403 v -0.247373 h -0.247405 v -0.247376 h 0.742168 z"
     style="fill:#f2a67c;stroke-width:0.247388"
     id="path79" />
  <path
     d="m 10.142965,12.864229 h 0.247401 v 0.49478 h 0.247405 v 1.484328 h 0.494779 v 0.247404 H 10.390382 V 14.595964 H 9.6481832 v -0.247402 h 0.2474021 v -0.494781 h 0.2473797 z"
     style="fill:#fba9f7;stroke-width:0.247388"
     id="path80" />
  <path
     d="m 12.369466,10.885117 h 0.247372 v 1.979111 h -0.989556 v -1.484334 h 0.247402 v 0.742168 h 0.494782 z"
     style="fill:#b788df;stroke-width:0.247388"
     id="path81" />
  <path
     d="M 8.6586278,9.1533957 H 10.88513 v 0.2473724 h -0.742165 v 0.49478 H 9.8955853 V 10.142951 H 8.9060319 V 9.8955481 H 9.153434 V 9.6481416 H 9.4008383 V 9.4007373 H 8.6586279 Z"
     style="fill:#5e394f;stroke-width:0.247388"
     id="path82" />
  <path
     d="m 10.88513,8.1638368 h 1.236945 v 0.2473757 h 0.247404 V 8.6585882 H 11.627296 V 8.9059903 H 11.132517 V 9.4007681 H 10.885113 V 9.1533957 H 10.390337 V 8.9059903 H 10.63774 V 8.6585882 h 0.247408 z"
     style="fill:#520910;stroke-width:0.247388"
     id="path83" />
  <path
     d="m 12.122075,27.460176 h 0.247404 v 1.236942 h -0.247404 v 0.247402 h -0.742168 v -0.989552 h 0.494777 v -0.247375 h 0.247391 z"
     style="fill:#833d84;stroke-width:0.247388"
     id="path84" />
  <path
     d="m 4.4530167,26.470617 h 0.2474035 v 0.247379 H 5.937364 v 0.742165 H 4.7004045 V 27.212757 H 4.453001 Z"
     style="fill:#532356;stroke-width:0.247388"
     id="path85" />
  <path
     d="m 6.1847381,25.233674 h 0.2473744 v 2.47389 H 6.679518 V 28.20234 H 5.9373501 v -0.494776 h 0.247388 V 26.718007 H 5.9373345 v -0.494778 h 0.2474036 z"
     style="fill:#c073b4;stroke-width:0.247388"
     id="path86" />
  <path
     d="m 3.4634609,23.74934 h 1.7317216 v 1.236946 h 0.2473743 v 0.494777 H 4.7004045 V 24.738896 H 4.9477809 V 23.996728 H 3.4634451 Z"
     style="fill:#877387;stroke-width:0.247388"
     id="path87" />
  <path
     d="m 5.6899604,10.885117 h 0.4947777 v 0.742167 H 6.4321127 V 11.37988 h 0.2474054 v 0.247404 h 0.2474037 v 0.742167 H 6.679518 V 12.122047 H 6.4321125 V 11.874672 H 6.1847381 v 1.484337 H 5.9373345 V 11.132506 H 5.6899312 Z"
     style="fill:#c38da6;stroke-width:0.247388"
     id="path88" />
  <path
     d="M 4.7004045,1.4843339 H 5.6899604 V 1.7317375 H 5.1951825 V 2.2265134 H 4.9477789 V 2.4739169 H 4.7004045 V 3.4634707 H 4.2056267 V 2.968697 H 4.45303 V 1.7317533 h 0.2474038 z"
     style="fill:#b65989;stroke-width:0.247388"
     id="path89" />
  <path
     d="m 0.49479342,17.069837 h 0.24740364 v 0.247375 H 1.2369747 v 0.247404 H 1.7317529 V 18.05939 H 1.4843786 v 0.494777 H 1.2369592 V 18.059392 H 0.98958497 V 17.812017 H 0.74218155 v 0.247375 H 0.24740342 V 17.564616 H 0.4947778 Z"
     style="fill:#dfb6a5;stroke-width:0.247388"
     id="path90" />
  <path
     d="m 10.390351,7.669059 h 0.494779 v 0.2474032 h 0.247404 V 8.1638324 H 10.88513 V 8.4112389 H 9.1534054 V 7.9164644 h 1.2369456 z"
     style="fill:#a1314a;stroke-width:0.247388"
     id="path91" />
  <path
     d="m 11.379907,0 h 0.494777 v 0.2474038 h 0.247391 V 1.2369594 H 11.87467 V 1.9791293 H 11.627266 V 1.2369594 h -0.247403 z"
     style="fill:#fad2fa;stroke-width:0.247388"
     id="path92" />
  <path
     style="fill:#542680;fill-opacity:1;stroke:#542680;stroke-width:0.0369041;stroke-opacity:1"
     d="M 6.4397457,22.127326 V 21.99816 H 6.0707081 5.701669 V 21.868984 21.739792 H 4.9635923 4.2255095 V 21.629118 21.518407 H 3.487433 2.7493565 V 21.278539 21.03867 H 2.8600693 2.9707822 V 20.651187 20.263676 H 2.8600693 c -0.098419,0 -0.1107128,-0.01225 -0.1107128,-0.110713 0,-0.09842 0.012315,-0.110713 0.1107128,-0.110713 0.098419,0 0.1107129,-0.01291 0.1107129,-0.1107 0,-0.101937 0.010549,-0.110712 0.1291849,-0.110712 0.1229687,0 0.1291846,-0.0055 0.1291846,-0.129191 0,-0.123028 0.00627,-0.129194 0.1291847,-0.129194 0.1230666,0 0.1291846,-0.0057 0.1291846,-0.129189 0,-0.12303 0.00604,-0.129181 0.1291848,-0.129181 0.1188636,0 0.1291847,-0.0087 0.1291847,-0.110711 0,-0.09844 0.012315,-0.110712 0.1107128,-0.110712 0.1018974,0 0.1106935,-0.01056 0.1106935,-0.129177 0,-0.123014 0.00604,-0.129165 0.1291846,-0.129165 0.1230469,0 0.1291849,-0.0055 0.1291849,-0.129192 0,-0.123029 0.00627,-0.129177 0.1291846,-0.129177 0.1230663,0 0.1291846,-0.0057 0.1291846,-0.129192 0,-0.118882 0.0088,-0.129193 0.1107129,-0.129193 0.098419,0 0.1107128,-0.01225 0.1107128,-0.110711 0,-0.101937 0.010549,-0.110712 0.1291851,-0.110712 0.1230468,0 0.1291847,-0.0055 0.1291847,-0.129192 0,-0.123027 0.00627,-0.129193 0.1291649,-0.129193 0.1230468,0 0.1291846,-0.0057 0.1291846,-0.129177 v -0.129192 h 1.2362578 1.236285 V 17.458673 17.348 h 0.4797365 0.4797366 v 0.110673 0.110714 H 9.8904813 11.12676 v 0.129192 0.129177 h 0.23987 0.239868 v 0.129193 c 0,0.123026 0.0055,0.129192 0.129187,0.129192 0.118901,0 0.129181,0.0079 0.129181,0.110712 0,0.09845 0.0123,0.110711 0.110714,0.110711 0.101937,0 0.110675,0.01056 0.110675,0.129193 0,0.123065 0.0057,0.129192 0.129182,0.129192 0.123028,0 0.129187,0.0055 0.129187,0.129177 0,0.122964 0.0055,0.129192 0.129185,0.129192 h 0.129185 v 0.239867 0.239866 h 0.129183 c 0.123029,0 0.129185,0.0055 0.129185,0.129192 v 0.129194 h 0.239868 0.239868 v 0.129178 c 0,0.123027 0.0057,0.129191 0.129181,0.129191 h 0.129192 v 0.590435 0.590432 H 12.97209 12.344713 v 0.129193 0.129179 h -0.978091 -0.977953 v 0.129189 0.129194 H 9.76092 9.1335416 v 0.110712 0.110673 H 7.8972652 6.6609797 v 0.147657 0.147618 H 8.026426 9.3918755 v 0.110714 0.110673 H 7.9157365 6.4395833 Z"
     id="path94" />
  <path
     style="fill:#542680;fill-opacity:1;stroke:#542680;stroke-width:0.00230651;stroke-opacity:1"
     d="m 7.298336,21.769249 c 0.3402763,-3.23e-4 0.8971503,-3.23e-4 1.237444,0 0.3402747,3.2e-4 0.062021,5.91e-4 -0.6187378,5.91e-4 -0.6805895,0 -0.9590099,-2.71e-4 -0.6187359,-5.91e-4 z"
     id="path95" />
  <path
     style="fill:#542680;fill-opacity:1;stroke:#542680;stroke-width:0.00230651;stroke-opacity:1"
     d="m 6.6807749,21.763478 c 0,-0.0043 0.060695,-0.0045 1.2362851,-0.0045 1.1758718,0 1.2362794,1.95e-4 1.2362794,0.0045 0,0.0043 -0.060687,0.0046 -1.2362794,0.0046 -1.1758737,0 -1.2362851,-2e-4 -1.2362851,-0.0046 z"
     id="path96" />
  <path
     style="fill:#542680;fill-opacity:1;stroke:#542680;stroke-width:0.0130474;stroke-opacity:1"
     d="M 6.4259141,22.136124 V 22.005606 H 6.0605711 5.6952265 V 21.881681 21.757688 H 4.9515239 4.2078081 v -0.110829 -0.11091 h -0.737158 -0.737189 v -0.254462 -0.254466 h 0.110869 0.1108892 v -0.378408 -0.378404 h -0.089719 c -0.1106547,0 -0.1255295,-0.01408 -0.1255295,-0.117424 0,-0.09417 0.01857,-0.117412 0.092085,-0.117412 0.030787,0 0.071305,-0.0054 0.08972,-0.01225 0.029904,-0.01078 0.033856,-0.02023 0.033856,-0.07502 1.094e-4,-0.03429 0.00744,-0.07698 0.016615,-0.09496 0.014661,-0.029 0.026975,-0.03341 0.1157562,-0.04089 0.054751,-0.0051 0.1058255,-0.01173 0.1137623,-0.01699 0.0088,-0.0054 0.014661,-0.04683 0.014661,-0.09955 0,-0.121776 0.019937,-0.14277 0.1361043,-0.14277 0.110107,0 0.1248647,-0.01543 0.1248647,-0.124905 0,-0.113709 0.021402,-0.135987 0.1337,-0.136181 0.044861,-1.1e-4 0.089974,-0.0055 0.1001968,-0.01212 0.011922,-0.0066 0.021109,-0.0418 0.024629,-0.09148 0.00703,-0.09722 0.029905,-0.118063 0.1286179,-0.118063 0.037373,0 0.072304,-0.0064 0.077462,-0.01564 0.00529,-0.0079 0.011727,-0.05807 0.015441,-0.11071 0.00411,-0.06198 0.013291,-0.101123 0.024922,-0.111379 0.010549,-0.0087 0.063977,-0.01935 0.1190007,-0.02344 l 0.099845,-0.0066 0.00937,-0.103521 c 0.0053,-0.05742 0.017005,-0.111286 0.026973,-0.121123 0.00957,-0.0097 0.063333,-0.02141 0.121112,-0.0267 l 0.1035023,-0.0092 0.00744,-0.0998 c 0.0088,-0.120685 0.022871,-0.141559 0.098008,-0.141559 0.030788,0 0.071324,-0.0054 0.08972,-0.0129 0.030359,-0.01078 0.033426,-0.01966 0.033426,-0.08232 0,-0.102091 0.016224,-0.117687 0.1368664,-0.127525 0.06466,-0.0054 0.1046144,-0.01447 0.1121006,-0.02639 0.00605,-0.01023 0.011729,-0.05478 0.011729,-0.0999 2.795e-4,-0.111779 0.022577,-0.13374 0.1362411,-0.13374 0.1150523,0 0.1248648,-0.01173 0.1248648,-0.150996 v -0.110259 h 1.2329958 1.2329875 v -0.110928 -0.110908 h 0.4958383 0.4958336 v 0.110908 0.110922 h 1.2329889 1.232985 v 0.130513 0.130494 h 0.241364 0.241363 v 0.11779 c 0,0.114362 9.57e-4,0.118063 0.03386,0.130496 0.01837,0.0058 0.06399,0.01223 0.101882,0.01223 0.09659,0 0.115932,0.01857 0.122968,0.116642 0.0064,0.09201 0.02259,0.105138 0.125785,0.105138 0.07495,0 0.08944,0.02111 0.098,0.14158 l 0.0066,0.0998 0.103455,0.0092 c 0.05675,0.0054 0.111046,0.01621 0.120212,0.02639 0.0088,0.0092 0.02111,0.06402 0.02668,0.121128 l 0.01056,0.104368 0.120662,0.0044 0.120624,0.0044 v 0.240896 0.240923 h 0.101497 c 0.147614,0 0.159444,0.01078 0.159444,0.150803 v 0.11018 h 0.241363 0.241423 v 0.116531 c 0,0.07846 0.0054,0.119912 0.01583,0.126571 0.0091,0.0054 0.06754,0.01291 0.130512,0.01563 l 0.114363,0.0054 v 0.598616 0.598617 h -0.625966 -0.626256 v 0.130512 0.130512 h -0.978409 -0.978567 v 0.130498 0.130513 H 9.7726702 9.1398842 V 21.648192 21.7591 H 7.9070618 6.6740725 v 0.130513 0.130515 h 1.3634679 1.3634585 v 0.123963 0.123941 H 7.9135885 6.4261683 Z"
     id="path97" />
  <path
     style="fill:#542680;fill-opacity:1;stroke:#542680;stroke-width:0.0130474;stroke-opacity:1"
     d="M 1.2460487,22.749357 V 22.501454 H 1.122083 0.99811734 V 22.377516 22.253524 H 0.87415141 0.7501857 V 22.136115 22.018688 H 0.87415141 0.99811734 V 21.894725 21.770798 H 1.122083 1.2460487 v -0.124007 -0.123924 h 0.1239656 0.1239266 v -0.241366 -0.241362 h 0.1174175 0.1174369 v 0.241362 0.241366 h 0.2479315 0.247902 v 0.123924 0.124007 h 0.4958316 0.4957689 v -0.11092 -0.110923 h 0.4893029 0.4893005 v 0.110923 0.11092 h 0.7437042 0.7437085 v 0.123927 0.123963 h 0.3653448 0.3653429 v 0.130495 0.130515 h 1.493941 1.4939367 v 0.110922 0.110908 H 7.3001656 5.199516 V 22.384117 22.266692 H 4.5797894 3.9600645 v 0.117425 0.117411 H 3.4712894 2.9825144 l -0.00388,-0.120642 -0.00388,-0.120644 -0.3685976,-0.004 -0.3685526,-0.004 V 22.129075 22.00532 H 1.990174 1.7427704 l -0.00388,-0.120669 -0.00388,-0.12068 -0.1271907,-0.0043 -0.1271908,-0.0044 v 0.124421 0.124396 H 1.3566012 1.2326746 v 0.130513 0.130514 h 0.1239266 0.1239659 v 0.247902 0.24793 h 0.1239655 0.1239658 v 0.117411 0.117425 H 1.4871349 1.2457124 Z"
     id="path98" />
  <path
     style="fill:#542680;fill-opacity:1;stroke:#3d1a4e;stroke-width:0.0130474;stroke-opacity:1"
     d="M 5.1994436,24.360725 V 23.740934 H 4.0904081 2.9813668 V 23.616997 23.49303 H 2.4855978 1.9897647 V 23.369092 23.245098 H 1.8657991 1.7418334 V 22.997199 22.749295 H 1.6178869 1.4939214 V 22.501364 22.253462 H 1.3699556 1.2459901 V 22.136037 22.018602 H 1.3699556 1.4939214 V 21.894674 21.77071 h 0.1174174 0.1174373 v 0.123964 0.123928 H 1.976678 2.2246093 v 0.123965 0.12394 h 0.371897 0.3718525 v 0.123991 0.12394 h 0.737189 0.7371811 v 0.123965 0.123938 h 0.3718973 0.3718541 v 0.123993 0.123939 h 2.9748303 2.9748284 v -0.123939 -0.123993 h 0.371895 0.371857 v -0.123938 -0.123965 h 0.867654 0.867663 v -0.12394 -0.123991 h 0.247934 0.24793 v -0.12394 -0.123965 h 0.247931 0.247902 V 21.894674 21.77071 h 0.123966 0.123992 v -0.123942 -0.123976 h 0.241362 0.241366 v 0.123976 0.123942 h 0.123964 0.123966 v 0.241362 0.241423 h -0.123966 -0.123964 v 0.247903 0.24793 h -0.123967 -0.123966 v 0.123967 0.123938 H 14.96569 14.841726 v 0.123993 0.12394 h -0.247931 -0.247933 v 0.123992 0.123939 h -0.495814 -0.49583 V 23.617063 23.741 h -1.115576 -1.115558 v 0.123994 0.123941 h -0.247932 -0.247901 v 0.12394 0.123991 h -0.49587 -0.4958346 v 0.123927 0.123964 H 9.5181093 9.4006898 V 24.236856 23.988954 H 7.7893723 6.1780062 v 0.123936 0.123992 H 5.9300749 5.6821728 v 0.130515 0.130513 h 0.1239657 0.1239658 v 0.241365 0.241363 H 5.5647924 5.1994494 Z"
     id="path99" />
  <path
     style="fill:#542680;fill-opacity:1;stroke:#3d1a4e;stroke-width:0.000966354;stroke-opacity:1"
     d="m 7.1549662,21.769847 c -0.00158,-3.26e-4 0.1331721,-7.94e-4 0.2995505,-0.0013 L 7.756968,21.768049 7.3716579,21.76782 6.986346,21.767578 v -0.331401 -0.331435 h 1.6288019 1.6288071 v 0.218406 0.218465 H 9.6979846 9.1520139 v 0.108218 0.108251 h -0.00341 c -0.0044,0 -0.0044,0.003 -2.42e-4,0.004 0.00539,0.0013 0.0055,0.0017 0.00484,0.0029 -6.919e-4,6.95e-4 -0.00594,0.0015 -0.015246,0.0022 -0.00748,4.77e-4 -0.2497781,0.0014 -0.5375276,0.0018 -0.4984719,6.88e-4 -0.5089627,6.88e-4 -0.2207805,0.0012 0.1663624,1.8e-4 0.3011336,6.48e-4 0.2995501,0.0013 -0.00314,8.42e-4 -1.5196508,9.55e-4 -1.5239565,9.5e-5 z"
     id="path100" />
  <path
     style="fill:#542680;fill-opacity:1;stroke:#3d1a4e;stroke-width:0.000966354;stroke-opacity:1"
     d="m 8.8000323,21.769989 c 0.065318,-1.42e-4 0.1711504,-1.42e-4 0.235793,0 0.064669,1.33e-4 0.011143,2.47e-4 -0.1182192,2.47e-4 -0.1297103,0 -0.1826051,-1.16e-4 -0.1175738,-2.47e-4 z"
     id="path101" />
  <path
     style="fill:#542680;fill-opacity:1;stroke:#3d1a4e;stroke-width:0.000966354;stroke-opacity:1"
     d="m 9.4097329,22.016467 c -9.548e-4,-2.41e-4 -0.00187,-0.0015 -0.00187,-0.0026 0,-0.0021 -0.015829,-0.0021 -1.2108552,-0.0021 H 6.9863395 v -0.120521 -0.120538 l 1.0833395,-1.23e-4 c 0.5958441,-6.4e-5 1.0835471,-3.42e-4 1.0838089,-5.91e-4 2.464e-4,-2.48e-4 4.411e-4,-0.05145 4.158e-4,-0.114116 l -4.18e-5,-0.113709 h 0.5450467 0.5450504 v 0.237231 0.237228 l -0.416258,-7.2e-5 c -0.2289001,-5.9e-5 -0.4170166,-3.24e-4 -0.4178977,-5.42e-4 z"
     id="path102" />
  <path
     style="fill:#542680;fill-opacity:1;stroke:#3d1a4e;stroke-width:0.000966354;stroke-opacity:1"
     d="m 8.8754079,21.770955 c 0.0176,-1.44e-4 0.046189,-1.44e-4 0.063976,0 0.016995,1.44e-4 0.00308,2.66e-4 -0.032549,2.66e-4 -0.035189,0 -0.049478,-1.17e-4 -0.031669,-2.66e-4 z"
     id="path103" />
</svg>
